# xmcd
#
# Track frame offsets: 
#        150
#        32005
#        58155
#        94880
#        125935
#        176982
#        208739
#        228651
#        254358
#
# Disc length: 3565 seconds
#
# Revision: 1
# Processed by: cddbd v1.5.2PL0 Copyright (c) Steve Scherf et al.
# Submitted via: ExactAudioCopy v0.99pb5
#
DISCID=8c0deb09
DTITLE=Hampton Hawes Quartet - All Night Session! 1-3 Disc 1
DYEAR=1956
DGENRE=Jazz
TTITLE0=Jordu
TTITLE1=Groovin' High
TTITLE2=Takin' Care
TTITLE3=Broadway
TTITLE4=Hampton's Pulpit
TTITLE5=I'll Remember April
TTITLE6=I Should Care
TTITLE7=Woody'n You
TTITLE8=Two Bass Hit
EXTD=YEAR: 1956
EXTT0=
EXTT1=
EXTT2=
EXTT3=
EXTT4=
EXTT5=
EXTT6=
EXTT7=
EXTT8=
PLAYORDER=
